/* XPM */
static char *d16e208e4a5f43b6d85a83407ac81c4cyeLPBNpXb7mJnJjJ[] = {
/* columns rows colors chars-per-pixel */
"64 64 105 2 ",
"   c None",
".  c black",
"X  c #010101",
"o  c #00061C",
"O  c #0F0D1A",
"+  c #130F1C",
"@  c #161818",
"#  c #22271B",
"$  c #291820",
"%  c #3B1C21",
"&  c #1A213B",
"*  c #22222C",
"=  c #302423",
"-  c #22283E",
";  c #38303B",
":  c #470B0A",
">  c #4D1B1C",
",  c #5F171A",
"<  c #4A280B",
"1  c #512910",
"2  c #773012",
"3  c #5E322D",
"4  c #2A401C",
"5  c #736606",
"6  c #2B3043",
"7  c #262E55",
"8  c #4C284F",
"9  c #4E327C",
"0  c #7D6A64",
"q  c #AE201F",
"w  c #B42C2E",
"e  c #AD3426",
"r  c #DE2C22",
"t  c #E23F2E",
"y  c #BC4912",
"u  c #996D0A",
"i  c #B76732",
"p  c #DE6419",
"a  c #E0681A",
"s  c #9C6444",
"d  c #964C6D",
"f  c #905060",
"g  c #B95F78",
"h  c #CA4149",
"j  c #DE5042",
"k  c #F0624A",
"l  c #FB604E",
"z  c #F77C5B",
"x  c #C87974",
"c  c #FD7962",
"v  c #FC7E65",
"b  c #F4706C",
"n  c #5D8A2B",
"m  c #7CAF39",
"M  c #B48010",
"N  c #B6B711",
"B  c #B4B414",
"V  c #D99D0B",
"C  c #F08D16",
"Z  c #F4BD1C",
"A  c #F38D3B",
"S  c #FFF200",
"D  c #FAC03A",
"F  c #F9D237",
"G  c #F5925B",
"H  c #E89667",
"J  c #F9926F",
"K  c #E3977D",
"L  c #FDED59",
"P  c #FDE970",
"I  c #2B4486",
"U  c #3B5BAE",
"Y  c #634490",
"T  c #4877AD",
"R  c #3F6CC7",
"E  c #A973C7",
"W  c #4B80DC",
"Q  c #66A2D8",
"!  c #6296E1",
"~  c #A7A8AC",
"^  c #E79F93",
"/  c #EF9A9A",
"(  c #EDB487",
")  c #FDB199",
"_  c #FAB99B",
"`  c #EA98AE",
"'  c #E9A3BF",
"]  c #F8E0BC",
"[  c #8C95C0",
"{  c #B5BACE",
"}  c #CB9DDE",
"|  c #F4B6C5",
" . c #F4BCC7",
".. c #BCC4D9",
"X. c #86C6EA",
"o. c #A2D3F1",
"O. c #BDDBF7",
"+. c #D4D3D8",
"@. c #FBC4C7",
"#. c #FAD1CB",
"$. c #FDE6C7",
"%. c #E3E4E8",
"&. c #F4F7E9",
"*. c #FAFAF8",
"=. c white",
/* pixels */
"  T | ` Q T T T X.| | Q Q   3 v c c c v v ) c = = = c c = &.= c ) v v c c c v 3 D D a 2 8 } } 8 E } } } } } } } } 8 8 E E E } } ",
"    Q X.X.X.X.X.X.X.Q T T 4 n 3 3 l v c c c c v = c c c c = v c c c c v l 3 3 D D a C C 8 E E E } } } } } } } } 8 ^ x 8 f f E E ",
"  T X.X.X.X.X.X.X.X.X.T   4 n n 4 3 v v c c c v c v v v v c v c c c v v 3 2 D D p C C p C 8 E E } } } } } } } 8 ^ x 8 f x x x x ",
"o.X.X.X.X.X.X.X.X.X.X.Q Q 4 n 4     l v v c c c c c c c c c c c c v v l   2 D a C C a C C 8 E } } } } } } } } E 8 8 8 x ^ ^ ^ ^ ",
"o.X.X.X.X.X.X.X.X.X.X.X.Q 4 n 4     3 l v c c c c e v v e c c c c v l 3 2 D p C C p C C p 8 E E } } } } } } } E E E 8 x ^ =.8 ^ ",
"X.% % X.X.X.X.X.*.% X.X.Q T n 4   4 4 3 l c c c ) v e e v ) c c c l 3 2 2 2 2 2 2 2 2 2 8 E E } } } } } } } } } E E 8 x ^ 8 8 ^ ",
"X.% % X.X.X.X.X.% % X.X.Q T n 4 4 n 3 l c c c ) v c c ) c v ) c c c l 3 D D D D D D D D 8 E E E } } } } } } } } } E 8 x ^ ^ ^ ^ ",
"` ` % X.X.X.X.X.% ` ` X.Q T n 4 n 4 3 l c c v c c c ) ) c c c v c c l 3 D D C C C C C C 8 E E E E } } } } } } } } } E 8 x ^ ^ f ",
"` ` X.X.X.% X.X.X.` ` Q Q T 4 4 m m 3 l c c c v c v v v v c v c c c l 3 C C C C C C C C C 8 E E E E } } } } } } } } } E 8 x ^ f ",
"T Q X.X.X.X.X.X.X.X.Q Q T n n m 4 m l c c v c c c v l l v c c c v c c l C C C C C C C C C 8 E E E E } } } } } } } } } } E 8 8 8 ",
"  T Q X.X.X.X.X.X.Q Q T 4 4 n m m 4 l v ) c c v v 3     3 v v c c ) v l C C C C C C C C D 8 E E E E E } E } } } } } } } } E E E ",
"` ` | g g g g g g g g g q q 4 n m 3 c c ) c v v l         l v v c ) c c 3 C C C C C C C C D 8 E E E E E E E E } } } } } } } E E ",
"g g | | ` ` ` ` ` ` g T r r q 4 n 3 v ) v v l l 3 ,     =.3 l l v v ) v 3 C =.=.=.C C C C C D 8 E E E E E E E } } E E } } E E 8 ",
"o.Q X.g g g g g g Q X.X.X.T r q 4 3 c v v v 3 3 J ,     X =.3 3 v v v c 3 =.X X =.=.C C C C C D 8 E 8 8 8 8 8 E E 8 8 8 8 E E   ",
"X.Q X.X.Q Q Q Q Q X.X.X.X.X.r r r r l l l 3 J r J ,   X =.X C C 3 l l l C X =.X X =.=.C 2 a C C 8 x 8 C 8 x 8 x x 8     8 x x X ",
"Q T X.X.X.X.X.X.X.Q T Q Q T r r r r 3 3 3 r r J r J , X X X C C C 3 3 3 C X X X X =.=.C C 2 a C 8 x 8 X 8 x 8 x x 8     8 f f s ",
"T T X.X.X.X.X.X.X.Q Q T T r r r r r r r r r r r r J , X X 2 2 2 2 C C C C =.X X =.=.=.C C 2 a C 8 f 8 X 8 f 8 f f 8 2   8 f f / ",
", T X.X.X.X.X.X.X.X.Q +.*.~ r r r r r r r r r r r r , =.2 D D D D 2 C C C a =.=.=.=.a C C 2 a C C 8 a X / 8 8 8 8 X X X X 8 8 / ",
"T X.X.X.X.X.X.X.X.X.Q +.*.~ , , r r r r r r , , r r , 2 p 2 2 2 2 D 2 C C C a =.=.a C C a 2 p a C C p X / s < s s < < s s < s / ",
"X.X.Q Q T X.X.X.X.Q Q +.+., , =., r r r r , , =., r , 2 p 2 h h h 2 D 2 C C C p a C C C 2 a a C C a p s s s s s s < < s s s s s ",
"X.X.Q T r T X.X.X.Q T ~ ~ , , , , r r r r , , , , r , > 2 p 2 b b b 2 2 C C C C C C C a 2 p a a p a a s s s X s s s s s s X s s ",
"T Q T q q r T X.X.Q T r r r , , r r r r r r , , r r , > 2 p C 2 2 2 C C 2 C C C C C p 2 a a p p a p 2 < < s X s s s s s s X s < ",
", T q q q q T X.X.T r r r r r r r r , , , r r r r r ,   > 2 p C C C C C C 2 C C C a 2 y y p a a a 2   s s s s s =.X X =.s s s s ",
"X , q , r r r T T r r r r r r r r r r r r r r r r , r , , > 2 p C C C C C C 2 2 2 2 y a 2 2 p a 2     < < s s s =.=.=.=.s s s < ",
"X X , r r r , r r r r r r r r r r r r r r r r r q , q , q , > 2 p a p p a a p a a 2 a C a C 2 2       X s s s s s s s s s s s s ",
"    , r r q , r r r r r r r r r r r r r r d d d d d d d d , 2 p 2 p a a a p p a a 2 D p C a C X X X     X X X s s s s s s X X X ",
"  $ $ $ $ $ $ $ $ $ $ r r r r r r r d d  . . . . . . . . .' d p p 2 2 2 y y y y y * * * * X s < X X     X < < < s s s s < < < X ",
"$ w t t t t L L t t w $ r r r r r r '  . . . . . . . . . . .' d 2 X X X 2 2 * * * W W W W X < X ! W * * X s s s s =.=.s s s s X ",
"t t t t t t t L L L t t w q q q d '  . . . . . . . . . . . . . .'   X U W W W W W W W W W X s X ! ! ! X < < < s =.=.=.=.s < < < ",
"t t t t t t t t L L t t t $ q q '  . . . . . . . . . . . . . . . .d * W W W W W W W W W W X < s X X X X s s s s =.=.=.=.s s s s ",
"t t t t t t t t L t t t t $ , d $.$. . . . . .$.$.$.$. . . . . . .' * W W W W W W W W W W W X < < s s X < X s s =.=.=.=.s s X < ",
"t t t t Y Y Y t t t Y Y Y w d ' $.$.$. . . . .$.$.$.$.$. . . . . .' * W W W W W W W W W W W W X X X < X s X s s X =.=.X s s X s ",
"t t t Y $ $ Y Y Y Y Y $ $ 9 d $.d d $.$. .$.$.$.d d $.$.$. . . . . .d 7 W W W W W W W W [ [ [ W W W X X < X s s X =.=.X s s X < ",
"t t Y Y $ =.$ Y Y Y $ $ =.9  .$.=.=.d $. .$.$.d =.d d $.$. . . . . .d 7 7 W W W W W [ [ %.%.%.[ [ X X X s X s s X =.=.X s s X s ",
"t t Y Y $ $ $ Y Y Y $ $ $ 9 $.$.d d d $. .$.$.d d #.d $.$.$. . . . .* 7 7 7 7 7 7 %.%.%.%.* * * X < s X s X s s X =.=.X s s X s ",
"t t Y Y $ $ Y Y Y Y Y $ $ 9 $.$.d #.d $.i $.$.d d ' d $.$.$. . . . .* 7 7 7 7 7 [ %.%.%.* * * * X < s s s X s s X =.=.X s s X s ",
"t t t Y Y Y Y _ _ _ Y Y Y d $.#.$.$.$.i A i $.$.$.$.#.$.$. . . . . .* 7 7 7 7 [ %.%.%.%.* * %.X X < s s s X =.=.X X X X =.=.X s ",
"t t _ _ _ _ _ $ _ $ _ _ _ d #.#.#.$.$.$.i $.$.$.$.#.#.#.$. . . . .* U 7 7 7 [ %.%.%.%.%.* * X =.=.< s s s X =.=.X *   X =.=.X s ",
"t t _ _ _ _ _ _ $ _ _ _ _ d $.$.$.$.$.$.$.$.$.$.$.$.$.$.$. . . . .* U 7 7 7 [ %.%.%.%.%.* * * X X X X X X ; X X 0 *     X X   X ",
"t t _ _ _ _ _ _ _ _ _ _ _ d $.$.$.$.$.$.$.$.$.$.$.$.$.$.'  . . . .* U W 7 7 [ %.%.%.%.%.%.* * * X %.[ * ; ; ; X 0 0 *       X   ",
"$ $ $ K _ _ _ _ _ _ K K $   ] $.$.$.$.$.$.$.$.$.$.$.$.d '  . . . .* U W W 7 7 7 [ %.%.%.@.@.%.%.X %.%.%.[ ; ; X X ; ; *   X X   ",
"9 9 9 $ $ $ $ $ $ $ $ $     ] $.$.$.$.$.$.$.$.$.$.$.$.d '  . . . .* U W W 7 7 7 7 %.%.%.@.@.X 6 6 6 X %.%.* X X X X X X X X X X ",
"$ $ $ w w w w w w w w w $   ] $.] $.] $.$.] $.$.$.$.$.d '  . . .* U U W W W 7 7 7 [ %.%.%.%.X 6 6 6 X X %.[ X X X X X X X X X X ",
"t t t t t t t t t t t t w   d $.] $.] $.$.] $.$.$.$.$.' d ' ' * W W W W W W W 7 7 7 7 [ %.%.X 6 6 X 6 6 X X X X X X X X X X X X ",
"t $ w t t L t t L t t $ t w $ d $.$.$.$.$.$.$.$.$.$.$.$.] d * U W W W W W W W W 7 7 7 7 [ %.X 6 X 6 6 X 6 X X X S X X X X S X X ",
"w $ w t t L t t L t t $ w w $   ] ] $.] ] $.] ] $.] $.$.$.* U W W W W W W W W W W W 7 7 X & 6 X 6 6 X 6 6 X X X X X o o X X X X ",
"$ w w w t t L : : t t $ $ t $     : : $.$.] $.$.] $.$.] U W W W W W W W W W W W W W [ [ X & X & & X 6 6 O X X X X X X X X X X X ",
"Y Y $ w t t : %.: : t $ 9 $     : : %.: $.$.$.$.$.$.: G : W W : W W W W W W W W W W W [ X X & & & X O + + X X X X X X X X X X X ",
": Y $ 9 Y Y : : : : : : : : : : : : : : d d ] ] ] : G k : U : k : W W W W W W W W W W W [ X - - X O + @ # X X X X X X X X X X X ",
"G Y $ 9 Y Y : : : : z z z z z z : : : :     d d d G k k : : G k : W W W W W W W W W W W { { { { X X O O O X X X X X X X X X X X ",
"k $ t t : G k k k k k z k k z k k k k k G :   A i k k k G k k k : W W W W W W W W W W * { { { ....{ X X X X X X X X X X X X X X ",
"k $ t t G k k k k k z k z z k z k k k k k G       k k k k k k j : W W W W W W W W W * [ { { ......1 B N 5 5 X X X X X X X X X X ",
"k $ t : k k k : : k k z k k z k k : : k k k :     k k k k k k j : U U W W W W W W W * [ { { ....u Z Z P M P P Z X X X X X X     ",
"k Y Y : k ( k : : k k : k k : k k : : k ( k :   * k : j j j j W U U U W W W W W W * [ { { ......Z Z Z P M P X X F F 1       X X ",
"k : : j k k k k k k k k : : k k k k k k k k j : : k j : : : : O.W U U U U W W W * { ........%.1 Z V Z P P X P P X F F F 1 X     ",
"j k : k k k k k k k k k k k k k k k k k k k k : k j j : U W W W O.W W W W W * { { ......%.%.%.1 Z Z Z P P Z P P P Z F F F F P P ",
"$ : : k k k k k k k k k k k k k k k k k k k k : : W U W U W W W W W W W W * { { ........%.%.%.1 V V Z P P M Z F P P M Z M Z F F ",
"  $ : j k k k k k j j j j j j j j k k k k k j : U W U U W W W W W W W * * { { ........%.%.%.%.1 V Z Z Z P P Z F P P F Z Z M Z Z ",
"    : : k k k k j : : : : : : : : j k k k k : : W W W W * * * * { { { { { ......%.%.%.%.%.%.%.1 V Z Z Z P P M Z F P P P M F F F ",
"  G k j H H : : H ( ( ( ( ( ( ( ( H : : H H j k G * * * { { { { { { { { ......%.%.%.%.%.%.%.%.%.V V Z Z F P P Z Z F F P P P M F ",
"  k k j : : H H H H H H H H H H H H H H : : j k k W I U * { { { { { ..........%.%.%.%.%.%.%.%.%.u V Z Z Z P P P Z Z Z F P P P P ",
"  k j : k j : H H H H H H H H H H H H : j k : j k I R R I U U * { { { { { { ..............%.%...1 V V Z Z F P P P M Z Z Z F P P ",
"  j : j j :     : : : : : : : : : :     : j j : j R R R I R R * * * * { { { ..................* * u V V Z Z Z F P P P M Z Z Z Z ",
"  j : j :                               * : j : j R R R R R *         { { { ..* * * * * ....*       u V V Z Z Z F F P P F Z Z Z "
};
