/* XPM */
static char *result[] = {
/* columns rows colors chars-per-pixel */
"64 64 9 1 ",
"  c #37474F",
". c #9C3232",
"X c #AD3C3C",
"o c #C04B4B",
"O c #008000",
"+ c #4CAF50",
"@ c #CDDC39",
"# c #C79FA0",
"$ c #D9B4B6",
/* pixels */
"oooooooooooooooooooXX##oooooooooooooooooooXX#ooooooooooX#ooooooo",
"oooooooooooooooooooXX##oooooooooooooooooooXX#ooooooooooX#ooooooo",
"ooXXXXXXXXXXXXXXXXX..$$ooXXXXXXXXXXXXXXXXX..$oXXXXXXXXX.$oXXXXXX",
"ooXXXXXXXXXXXXXXXXX..$$ooXXXXXXXXXXXXXXXXX..$oXXXXXXXXX.$oXXXXXX",
"ooXXXXXXXXXXXXX                              oXXXXXXXXX.$oXXXXXX",
"ooXXXXXXXXXXXXX                              oXXXXXXXXX.$oXXXXXX",
"ooXXXXXXXXXXXXX  ++++++++++++++++++++++++++  oXXXXXXXXX.$oXXXXXX",
"ooXXXXXXXXXXXXX  ++++++++++++++++++++++++++  oXXXXXXXXX.$oXXXXXX",
"XX.............  ++++++++++++++++++++++++++  X..........#X......",
"XX.............  ++++++++++++++++++++++++++  X..........#X......",
"##$$$$$$#####$$  ++++++++++++++++++++++++++  #$$$###$$$###$$$###",
"##$$$$$$#####$$  ++++++++++++++++++++++++++  #$$$###$$$###$$$###",
"ooooooooXX#oooo  ++++++++++++++++++++++++++  ooooX#ooooooooooX#o",
"ooooooooXX#oooo  +++++OOOOOOOOOOOOOOOO@++++  ooooX#ooooooooooX#o",
"XXXXXXXX..$ooXX  +++++OOOOOOOOOOOOOOOO@++++  XXXX.$oXXXXXXXXX.$o",
"XXXXXXXX..$ooXX  +++++OO+++OO+++OO++++@++++  XXXX.$oXXXXXXXXX.$o",
"XXXXXXXX..$ooXX  +++++OO+++OO+++OO++++@++++  XXXX.$oXXXXXXXXX.$o",
"XXXXXXXX..$ooXX  +++++OO+++OO+++OO++++@++@@  XXXX.$oXXXXXXXXX.$o",
"XXXXXXXX..$ooXX  +++++OO+++OO+++OO++++@++OO  XXXX.$oXXXXXXXXX.$o",
"..........#XX..  +++++OO+++OO+++OO++++@++OO  .....#X..........#X",
"..........#XX..  +++++OO+++OO+++OO++++@++OO  .....#X..........#X",
"##$$$$$$#####$$  +++++OO+++OO+++OO++++@++OO  #$$$###$$$###$$$###",
"##$$$$$$#####$$  +++++OO+++OO+++OO++++@++OO  #$$$###$$$###$$$###",
"ooooooooooooooo  +++++OO+++OO+++OO++++@++OO  ooooooooooX#ooooooo",
"ooooooooooooooo  +++++OO+++OO+++OO++++@++OO  ooooooooooX#ooooooo",
"ooXXXXXXXXXXXXX  +++++OO+++OO+++OO++++@++OO  oXXXXXXXXX.$oXXXXXX",
"ooXXXXXXXXXXXXX  +++++OO+++OO+++OO++++@++++  oXXXXXXXXX.$oXXXXXX",
"ooXXXXXXXXXXXXX  +++++OO+++OO+++OO++++@++++  oXXXXXXXXX.$oXXXXXX",
"ooXXXXXXXXXXXXX  +++++OO+++OO+++OO++++@++++  oXXXXXXXXX.$oXXXXXX",
"ooXXXXXXXXXXXXX  +++++OO@@@@@@@@@@@@@@@++++  oXXXXXXXXX.$oXXXXXX",
"ooXXXXXXXXXXXXX  +++++OO@@@@@@@@@@@@@@@++++  oXXXXXXXXX.$oXXXXXX",
"XX.............  ++++++++++++++++++++++++++  X..........#X......",
"XX.............  ++++++++++++++++++++++++++  X..........#X......",
"##$$$$$$#####$$  ++++++++++++++++++++++++++  #$$$###$$$###$$$###",
"##$$$$$$#####$$  ++++++++++++++++++++++++++  #$$$###$$$###$$$###",
"ooooooooXX#oooo  ++++++++++++++++++++++++++  ooooX#ooooooooooX#o",
"ooooooooXX#oooo  ++++++++++++++++++++++++++  ooooX#ooooooooooX#o",
"XXXXXXXX..$ooXX  ++++++++++++++++++++++++++  XXXX.$oXXXXXXXXX.$o",
"XXXXXXXX..$ooXX  ++++++++++++++++++++++++++  XXXX.$oXXXXXXXXX.$o",
"XXXXXXXX..$ooXX  ++++++++++++++++++++++++++  XXXX.$oXXXXXXXXX.$o",
"XXXXXXXX..$ooXX  +++++OOOOOOOOOOOOOOOO@++++  XXXX.$oXXXXXXXXX.$o",
"XXXXXXXX..$ooXX  +++++OOOOOOOOOOOOOOOO@++++  XXXX.$oXXXXXXXXX.$o",
"XXXXXXXX..$ooXX  +++++OO+++OO+++OO++++@++++  XXXX.$oXXXXXXXXX.$o",
"..........#XX..  +++++OO+++OO+++OO++++@++@@  .....#X..........#X",
"..........#XX..  +++++OO+++OO+++OO++++@++@@  .....#X..........#X",
"##$$$$$$#####$$  +++++OO+++OO+++OO++++@++OO  #$$$###$$$###$$$###",
"##$$$$$$#####$$  +++++OO+++OO+++OO++++@++OO  #$$$###$$$###$$$###",
"ooooooooooooooo  +++++OO+++OO+++OO++++@++OO  ooooooooooX#ooooooo",
"ooooooooooooooo  +++++OO+++OO+++OO++++@++OO  ooooooooooX#ooooooo",
"ooXXXXXXXXXXXXX  +++++OO+++OO+++OO++++@++OO  oXXXXXXXXX.$oXXXXXX",
"ooXXXXXXXXXXXXX  +++++OO+++OO+++OO++++@++OO  oXXXXXXXXX.$oXXXXXX",
"ooXXXXXXXXXXXXX  +++++OO+++OO+++OO++++@++OO  oXXXXXXXXX.$oXXXXXX",
"ooXXXXXXXXXXXXX  +++++OO+++OO+++OO++++@++++  oXXXXXXXXX.$oXXXXXX",
"ooXXXXXXXXXXXXX  +++++OO+++OO+++OO++++@++++  oXXXXXXXXX.$oXXXXXX",
"XX.............  +++++OO+++OO+++OO++++@++++  X..........#X......",
"XX.............  +++++OO+++OO+++OO++++@++++  X..........#X......",
"##$$$$$$#####$$  +++++OO@@@@@@@@@@@@@@@++++  #$$$###$$$###$$$###",
"##$$$$$$#####$$  +++++OO@@@@@@@@@@@@@@@++++  #$$$###$$$###$$$###",
"ooooooooXX#oooo  ++++++++++++++++++++++++++  ooooX#ooooooooooX#o",
"ooooooooXX#oooo  ++++++++++++++++++++++++++  ooooX#ooooooooooX#o",
"XXXXXXXX..$ooXX  ++++++++++++++++++++++++++  XXXX.$oXXXXXXXXX.$o",
"XXXXXXXX..$ooXX  ++++++++++++++++++++++++++  XXXX.$oXXXXXXXXX.$o",
"XXXXXXXX..$ooXX  ++++++++++++++++++++++++++  XXXX.$oXXXXXXXXX.$o",
"XXXXXXXX..$ooXX                              XXXX.$oXXXXXXXXX.$o"
};
