/* XPM */
static char *_2e7e1f7ea1b4fb7ae99a6d5118983bb2XorNb4qJnvSUaGd[] = {
/* columns rows colors chars-per-pixel */
"63 64 256 2 ",
"   c #0A0B19",
".  c #111315",
"X  c #271C1C",
"o  c #090B27",
"O  c #141427",
"+  c #14102D",
"@  c #090C38",
"#  c #2B0F2D",
"$  c #292935",
"%  c #581034",
"&  c #5C252C",
"*  c #73323A",
"=  c #184D1C",
"-  c #2B7A3C",
";  c #39783C",
":  c #4C4E3C",
">  c #714A37",
",  c #556E37",
"<  c #726932",
"1  c #0B0D48",
"2  c #0D0E55",
"3  c #161654",
"4  c #2C1351",
"5  c #1C2047",
"6  c #2C304D",
"7  c #292A58",
"8  c #372957",
"9  c #363358",
"0  c #0D0E64",
"q  c #151468",
"w  c #151668",
"e  c #301669",
"r  c #1D2774",
"t  c #262667",
"y  c #3E2568",
"u  c #363568",
"i  c #272679",
"p  c #36377A",
"a  c #541248",
"s  c #681954",
"d  c #7C175C",
"f  c #503053",
"g  c #6B2E4F",
"h  c #4E1668",
"j  c #70116B",
"k  c #42266A",
"l  c #4E376C",
"z  c #652364",
"x  c #742D6D",
"c  c #387246",
"v  c #325062",
"b  c #51504D",
"n  c #724D4C",
"m  c #496849",
"M  c #536C4B",
"N  c #6C714F",
"B  c #534E6E",
"V  c #71536F",
"C  c #4B7379",
"Z  c #746E6B",
"A  c #8A193C",
"S  c #913235",
"D  c #A73B27",
"F  c #A2393C",
"G  c #8C4B31",
"H  c #B04C2E",
"J  c #8F6D37",
"K  c #997539",
"L  c #AF7035",
"P  c #CA682A",
"I  c #CF712E",
"U  c #CD6733",
"Y  c #851C55",
"T  c #8F2D50",
"R  c #A6255B",
"E  c #B1196B",
"W  c #8F286D",
"Q  c #AE2F6B",
"!  c #B82774",
"~  c #C92C5A",
"^  c #C82B6E",
"/  c #C4357B",
"(  c #FD286A",
")  c #E73779",
"_  c #8D4F4E",
"`  c #AE514E",
"'  c #986D4E",
"]  c #AF714F",
"[  c #96526A",
"{  c #91597C",
"}  c #B25071",
"|  c #946D72",
" . c #AA6F72",
".. c #C9594C",
"X. c #EF524F",
"o. c #CC7049",
"O. c #F27049",
"+. c #CB7178",
"@. c #E06A76",
"#. c #329237",
"$. c #34AE31",
"%. c #4D9234",
"&. c #749A31",
"*. c #51AC32",
"=. c #7CA52D",
"-. c #33C532",
";. c #7ACD31",
":. c #56E135",
">. c #31A146",
",. c #5A9353",
"<. c #4DD452",
"1. c #8C9634",
"2. c #B98736",
"3. c #9DA53C",
"4. c #B4AD34",
"5. c #D38A34",
"6. c #E6942D",
"7. c #EE9333",
"8. c #D7AD33",
"9. c #F0AD34",
"0. c #F5B835",
"q. c #88D533",
"w. c #ABCE33",
"e. c #81F736",
"r. c #A5FD39",
"t. c #F9C634",
"y. c #E5DE3B",
"u. c #F1D436",
"i. c #B38F4F",
"p. c #A5B15C",
"a. c #949670",
"s. c #AD926F",
"d. c #D38750",
"f. c #ED924D",
"g. c #D3B44D",
"h. c #F5B24D",
"j. c #D1936A",
"k. c #EF8E6C",
"l. c #C7AA70",
"z. c #F5B071",
"x. c #9ACF66",
"c. c #C4C555",
"v. c #F4CB56",
"b. c #F6F955",
"n. c #D5DD72",
"m. c #F4D06D",
"M. c #36358A",
"N. c #443B8D",
"B. c #72338D",
"V. c #6137A0",
"C. c #2F5198",
"Z. c #356798",
"A. c #3A6BA9",
"S. c #3C71B1",
"D. c #51508E",
"F. c #4B4897",
"G. c #73518D",
"H. c #52698E",
"J. c #6E6D90",
"K. c #534EA5",
"L. c #5B56A9",
"P. c #6A56A9",
"I. c #4972A6",
"U. c #7170AD",
"Y. c #786DC7",
"T. c #7476C7",
"R. c #9D2D94",
"E. c #B32C94",
"W. c #CA3482",
"Q. c #C63091",
"!. c #F03788",
"~. c #E63EAA",
"^. c #8A5A8F",
"/. c #B84289",
"(. c #AC4792",
"). c #8F6B8E",
"_. c #A86A8A",
"`. c #9B69B1",
"'. c #CD4E90",
"]. c #F8599B",
"[. c #D26D8A",
"{. c #F374AA",
"}. c #986ECD",
"|. c #837AC8",
" X c #E551CB",
".X c #FC54EC",
"XX c #FD74E7",
"oX c #599A95",
"OX c #7C8A85",
"+X c #73918E",
"@X c #7190B1",
"#X c #4E97D1",
"$X c #7397D8",
"%X c #6EA9DC",
"&X c #6E9BE1",
"*X c #6AB4EF",
"=X c #65C9FC",
"-X c #77CCF7",
";X c #7FD1FA",
":X c #909090",
">X c #AA9094",
",X c #91AE88",
"<X c #B7AF93",
"1X c #8E8CB2",
"2X c #AC91B1",
"3X c #9BA6B5",
"4X c #ADAAAD",
"5X c #D39491",
"6X c #F99290",
"7X c #D4AA94",
"8X c #F6B98D",
"9X c #D68EB4",
"0X c #CFB0B1",
"qX c #F5ADA4",
"wX c #B7CF96",
"eX c #F0C88F",
"rX c #D8C6BC",
"tX c #EECBB0",
"yX c #E8E8A2",
"uX c #8886C7",
"iX c #8E8ECD",
"pX c #999ACB",
"aX c #A796D2",
"sX c #8EACCF",
"dX c #A5A6CD",
"fX c #B4B4C9",
"gX c #A9A8D2",
"hX c #ACB7D3",
"jX c #B4B2D0",
"kX c #88B4E7",
"lX c #A8A0E7",
"zX c #D29AD5",
"xX c #F98DCF",
"cX c #CEB6D2",
"vX c #EDABCE",
"bX c #D7B2E3",
"nX c #9AC4D9",
"mX c #ADC6D7",
"MX c #BAC6D4",
"NX c #98CAE7",
"BX c #87D3F9",
"VX c #95D3F3",
"CX c #AAD6EF",
"ZX c #B2DEF4",
"AX c #ADE1F9",
"SX c #B5E1F6",
"DX c #D8C9C4",
"FX c #C8CED1",
"GX c #E1CDC4",
"HX c #E3CDC8",
"JX c #E5D5CD",
"KX c #D0D3E5",
"LX c #E3D9E6",
"PX c #D5E7F0",
"IX c #F1EEED",
"UX c #FDF3EE",
/* pixels */
"n g k n g n f l :X4X4X4X4X4X>XJ.:X:X:X:X:X:X:XOXu 9 7 9 9 9 7 7 7 7 9 9 9 7 7 f > > n J.V > n b z W g g Q (.V & V J.b V (.[ > ",
"G d e S s d g x cXUXUXUXUXUXcXuXhXgXdXgXMXgXgX3X_ n n r N.n n n u N.M.i N.N.p l _ D ` ^.[ D S z j E Y % ! !.W # l F.5 R. Xx g ",
"T z h a 4 h S z fXLXUXUXIXcX|.|.hX&X$XuXhX&X$X|.L I | t V L I ' J.Y.L.M.Y.Y.U.G.[ D D D D D T j j E A # j E A @ q 0 @ x V.0 0 ",
"z e h e f j S 8 dXFXLXIXcX|.Y.|.mX-X*XuXmX=X*XU.b n P.t > > D n U.J.L.M.U.J.U.J.* g * T T S g h j E A # j E A o @ @   5 7 @ @ ",
"j s j e * Y S 8 dXFXFX1XY.Y.Y.|.mXNXNXgXMXNXNX1X9 u M.q f 8 f f N.u M.i M.6 u B f 8 g g W G.B a # % % # j E A   % x g & & f u ",
"T F d e * Y S g 4XFXU.i N.Y.Y.|.hXgXdXgXMXdXdX1Xi N.n _ n n n b q M.N.M.u M.M.l S g D D _ ^._ S * d a # j E A   R. Xx g g l F.",
"G S h a g h d H 4X@Xq 0 q N.Y.|.hX&X$XuXhX&X$XP.i [ I L L L i.| t H.J.U.J.Y.Y.^.S z _ D D D D F E !.W # j E A   x V.0 0 0 0 0 ",
"G d e S d e h g H.r 0 0 0 q N.Y.mX-X*XuXmX=X*XL.t * > > > > n L.t H.J.Y.Y.Y.Y.^.s r l T Y Y g s j E A O # % %   $ 7 @ @ @ @ @ ",
"& f 5 s a 3 4 4 n f V g n D.G.J.0XNXmXdXFXNXmXpX1X>X>X5X5X5X>XN.y F.G.G.G.D.G.^._.| _ ` ` } _.G.B.R.W 8 8 8 8 % % % % % % % % ",
"O 5 O a # 1 o 5 I | 7X..5.| 7X' 0XGXGXGXGXGXGXJXIXSXSXSXSXSXsXe g 6 f Y g 9 f } qX .` ` ` } 5X2Xk k y y k k k Q / W./ W.! W./ ",
"O 1 o a # 5 O 4 j.1X0X` d.N 7X] 0X0X7XrXDX0X7XHXPX*XS.A.A.#X#Xk R f f ~ W f g X.d.W _.} ` T } >Xk y y y y y y W / W./ W.! W./ ",
"X 4 + f X $ X s 7X_.j. .7X' j.` 0X0X7XrXDX0X7XHXPX%Xr A.I.@X#Xh ^ g T ( ^ z W X.I o.tXz.7...` ] y k k k k k y W / W.! W.! W./ ",
"X a # $ . $ O s 5X] 5.1X0XL 6. .0XGXGXGXGXGXGXJXPX%XM.*XBXPX#Xk T f x ! T 9 d ..I U z.h.7...` ] y y k y y y y W / W.! W.! W./ ",
"X a # 5 O 4 + 8 5X..5.2X0X` k.1XDXGXrX7XrXGXrXeXPX*XpXZXPXPX#Xe g 9 f T g 6 f H I ` h.7.7...` ] y y y y y y y W / W./ W.! W./ ",
"O 4 + 1 o a # 6 7X' j.).j...7X).0XGXrX5XrXGXrX5XPX;XAXSXSXAX#Xe W f f ~ R f g X.+.W  .P P ` } >Xk k k k k k k W / / ! / ! W./ ",
"O 5 O 4 O a # : j.N 7XN 5. .7XZ 0XGXDXcXDXDXDX2XU.A.A.A.A.A.C.h ^ z W ( ^ f W ].qX ...P P o.5X2Xy y y y y k y W / / / / ! W./ ",
"C H.9 G.H.D.f Z 7.L  .,.5.j._.M J.2XU.2X).2XU.2XR.B.9 y R.B.7 g o.i.'.].f.] +.k.FXtX<X<X7XtXmXiXW W W W W W W '.2X9X2X9X2X9X2X",
"sXU.J.sXNXJ.J.sX3.K f b &.J k v t L.i L.i L.i P.'.} 9 l '.} 9 l k.b.vXxXeX6Xz.l.;XZXVXBXZXBX;XzX) ) ) ) ) ) ) @.DXfXfXDXDXfXfX",
"FX4X$XCXPX3X$XNX,.- y e c - y e F.uXL.1XL.uXL.1XH S q 4 D S 0 N.xXqXqX6XvXXXeXn.BXZXZXZXBXBXSXzX!.) !.) ) ) ) @.DXfXfXDXDXfXfX",
"JXZXNXIXUXCXNXLXi.1.m k J 1.m k F.uXL.1XL.1XL.1X'./.9 l './.9 B qX6X8X0.eXxXqXn.;XVXVXPX=XBXBXaX) ) ) ) ) ) ) [.fXDXDXfXfXrXDX",
"nXkX:XFXZX%X:XDXh.7.N m 6.7.N m t L.i L.i L.i }..X Xb V .X Xb N z.8X8X0.b.vXxXyXVX=X;XZXVX=XBXzX!.) !.) ) ) ) [.fXDXDXfXfXDXDX",
"sXJ.H.sXNXJ.J.sX3.J k b &.J f B D.uXL.uXL.uXL.2X'.} 9 f '.} 7 b f.8Xz.z.qXqX6XHXSXVX=X;XBXBXSXzX) ) ) ) ) ) ) @.DXfXfXrXDXfXfX",
"FX4X$XCXKX4X$XNX,.- y e c - k e F.uXL.1XL.1XL.1XH S q 4 D S 0 f 9.v.h.vXxXv.h.FX;XVX=XBXVXBXBXaX!.) !.) !.) ) @.DXfXfXDXFXfXfX",
"LXZXNXIXUXCXNXLXi.1.m k K 1.m e r L.i L.i L.i U.'./.9 l './.9 B k.u.h.qXz.u.h.FX=X=XBXZXBXBXVXaX) ) ) ) ) ) ) +.fXrXDXfXfXrXDX",
":X+XOX+X,X+X+X,XO.]. ./.X.]. .(.v B.h B v B.k G.6X6X` i.6X].2.s. Xo.@.{...@.[.2XfX:X>XtX4X>X>X7X{.[.[.{.{.[.[.`.pXmXFXfXhXmXfX",
"; b ; -.#.b ; $.T / ! / ! / ! } *.c z K -.m x L O.7.~ O.7.~ O.h.W.a ! E.a W.E.n f.` T d.f.H T i.:X:XOX:X:XOXOX|.&X*XNXFXVX*X&X",
"c c ; %.#.c ; %.(.^ Q.^ Q.^ Q...3.$.n 8.w.$.n 0.f.X.o.f.X.o.f.X.R R E.E R E.R F H d j F H d j | >X:X:X>X>X:X:XiX*X&XiXpXiX&X*X",
"#.-.#.f c -.#.f } ! / ! / ! / Q J ; #.1.J ; #.3.8.~ O.f.~ O.f.Y a ^ W.a ^ E.a R d W T d d T T V :X:XOX:X:XOXOX1XNXiXaXjXuXsXNX",
"c %.#.c c %.#.m ` Q.^ Q.^ Q.^ E.z m #.f f m #.g X.o.f.X.o.f.X.` R E.E R E.R R R.W o.k.T W d.k.s.>X:X:X>X>X:X:X2XFXpXgXKXpXdXFX",
"c b c -.#.b c -.[ / ! / ! / ! ! W K -.m d K -.m Q O.7.~ O.f.~ X.^ W.a ^ W.a / Q.T 5.f.` T d.f.i.:X:XOX:X:XOXOX1XVXiXuXpXuXsXVX",
"c c c %.#.c c ,.(.^ Q.^ Q.^ Q.~ _ 8.w.$.n t.w.$.] f.X.o.f.X.o.k.E.E R E.R R E.W j F H d j F H | >X:X:X>X>X:X:XiX*X&XsXdXsX&X*X",
"#.-.#.b c -.#.f Q ! / ! / ! / Q M 1.J ; #.1.J , O.7.~ O.f.~ O.h.W.a ! W.a W.E.& ` j d T T j d V :X:XOX:X:XOXOX|.&X*XNXFXNX*X&X",
"oXoXoXP.J.oXoXf H d.j.o.I o.j.i.b > > > < L L 2.f.5.N O.9.] K 7.O.s.j.5X] 5Xj.>X3XT.T.@X3XT.T.@X,X,X,Xa.a.,X,Xs.l.wXDXtXn.wXrX",
"F.pXcXcXcXcX|.$ H 0.m.z.9.z.m.h.Y S Y Y Y ` ` 7.9...b O.9...b X.I m.b.m.d.m.b.yXAX=X=X=X=X=X=XNXtX7XHX0X9XvXGXz.t.8.v.v.u.8.v.",
"t |.jXgXjXLXuX$ H I 0.m.m.m.t.P Y S T T T Y Y L =.M 7 N &.M 7 ' g.m.v.m.g.m.v.yXIXAX=X=X=X=X-XjX9X7XGXcXzXvXDXz.m.m.y.t.m.m.y.",
"t L.gXL.U.KXuX$ I I P 0.m.0.I P Y D D D D F d G $.1.K =.$.1.K 4.b.m.d.m.b.m.d.tXUXIXVX=X=X-XmXcXzXcXvXvXDXDXvX[.f.v.t.6.f.v.t.",
"t P.KXfX|.KXuX$ I 7.j.v.t.t.j.7.Y F D D D F d G *.9.t.8.*.9.t.9.v.eXg.m.v.m.g.tXUXUXIXNX%XmXFXDXGXDXvXvXDXDXcX5X9.u.m.f.9.u.m.",
"t L.aXgXuXKXuX$ I z.m.t.I 0.m.z.W U H D D F d S b O.9...b O.9.X.I m.b.m.o.m.b.yXUXUXLXpX|.gXFXFXeX7X0XGXeX7XcXz.u.8.v.v.u.8.v.",
"t M.M.M.M.D.N.# j.m.t.I I P 0.m.W 6.I I H D S S 7 N &.M 7 , &.1.g.m.v.eXg.m.v.yXUXLXpXY.Y.|.gXhX4X0X0XDXtX0XcXz.m.m.y.t.m.m.y.",
"+ o o o o o o . g.t.I I 7.I I 6.W T ` ` Y Y Y T K =.$.1.K =.$.4.b.m.o.m.b.m.d.eXLXpXY.Y.Y.Y.|.}.zXGXDXGXvXvXGXj.f.v.t.5.f.v.t.",
"B ).D.B B B B :Xy.w.%.J J J %.q.>XG.j G.`.G.j G.>X<X+X7X5X<X+X7Xk.{.{.eXeX{.X.d.x.x.x.x.x.x.x.0XbXdXMXKXlXlXNXJ.& > > & & G J ",
"F.uXbXiXY.|.jXjXr.r.:.#.m b #.-.1X{ G.{ 1X{ G.).dXMXgXpXhXMXgXaXxXxXXXtXk.~. X_.;.w.;.w.;.w.;.eXCXNX;XZXNX&X*XZ.@ @ @ @ @ 5 $ ",
"F.M.uXcXiXjXgXD.$.;.r.:.#.m b m G.).3X^.B.).pX).pXMXpXdXdXhXpXjXtXk.].{.X.!..X2X;.w.q.w.q.w.q.wXCXZXBXSXkXT.&XZ.@ 7 F.p 2 1 @ ",
"U.L.N.iXcXgXF.F.c -.;.r.:.#.m b G.{ 1X{ G.{ 1X).pXpXhXMXdXpXhXcX{.X.!.XXqX{..X`.;.w.;.w.;.w.;.eXZXBXAXSX&X$XNXJ.7 F.u D.t @ 2 ",
"U.Y.P.gXjXjXU.U.B ; -.e.r.:.#.M 1X^.B.^.3X^.B.^.pXdXdXMXpXdXdXbX.X X XXXtXk.~.2X;.w.q.w.q.w.q.wXBXBXZXZXNX*XBXC 6 9 @ 5 5 2 1 ",
"U.Y.jXgXK.uXcXuXB b ; -.e.r.:.>.1X{ G.{ 1X{ G.).dXMXdXpXhXMXdXaXXXvXxX.X{.X.!.`.;.w.;.w.;.w.q.wXBXSXkXkXSXPXVXZ.O $ 6 5 @ u D.",
"U.jXgXK.F.N.iXjX,.m b ; -.;.r.:.G.^.pX^.B.).3X).pXMXpXdXdXhXpXaXXXtXk.~..X{.vX<X;.w.q.w.q.w.q.wXAXKXT.&X;XVXSXiX7 + 7 @ 7 u p ",
"jXgXK.F.U.L.M.1X<.#.m b ; -.;.r.^.{ 1X{ G.{ 1X| pXpXhXMXgXpXhXcX].{.X.!..XxXtXp.;.w.;.w.;.w.;.eXMXsX%XNXVX*XkX@Xt 2 1 @ F.p @ ",
"FXjXp M.1XdXp M.oXv 7 7 7 = = , c.g.d.n V 5.c.g.D.F.pXFXFXhXhXaXvXvX`.`.lXbX<X,.oXM C @XoXb C 3X4Xn.n.wXwXn.n.s.B.K.W b >.H.v ",
"fXfXp q 3XMXp q #XM.0 0 2     X y.t.6.b > 6.t.b.1XU.F.pXFXMXU.U.IXDXJ.iXZXCXJX1XA.@XU.C.A.@XI.C.Z a.4.i.:Xa.8.o.R.B.W _ < _ _ ",
"D.J.@X1XH.D.U.@XI.S.r q 0   . C g.6.K 2.L K 7.h.tXrXU.F.iXU.D.1XgX1XB iXBXVXUXdXC.-X@X7 C.-X@XN c.:Xs.y.c.:Xs.s.P.(.Q._ Z ^.N ",
"t B 3XFXp q 3XMXp v I.@X1X+XoXH.5.K 2.u.u.2.K f.tXtXfXK.M.M.U.mXkXpX1XKXPXPXUXKXU.C.A.@XU.C.A.+X4.i.J.a.8.i.J.).B.R.R._ _ [ n ",
"1X1XH.D.@X1XH.D.q   6 B %XH.C.t < 2.u.b.b.u.2.' rXDXhXU.q i uXfX+XuXaXPXSXUXUXPX@X7 C.-X@X7 C.$Xs.y.c.:Xs.y.c.] S S S T [ W Y ",
"fXfXp q 3XMXp 0 2     O #Xr 0 q b 6.t.b.b.0.6.N MXMX1XD.1XU.F.U.B T.kXIXPXIXUXjXA.@XU.C.A.@XU.D.).a.8.i.J.a.w.w.N ^.N _ / ~.Q.",
"D.J.@X1XH.D.@X1Xt   . Z.Z.S.r t K K 6.0.0.6.K i.1XU.F.1XtXrXU.D.3X$X-XnX:X:XaXU.C.=X@X7 C.-X@XN c.:Xs.y.c.:Xp.4._ [ _ T E R.(.",
"t p 3XFXp q 3XFX1X+XoXC.q v #X1Xv.2.K 6.6.K 5.8.l M.U.FXtXtXfX|.KXiXPXhXJ.U.#XJ.U.C.A.@XU.C.I.+X4.i.J.a.w.p.J.,.Z ^.N _ R.R./ ",
"g B G. .b D.| Z D.B U.5 + B v m q.L > L &.G J L ' G.{ 2Xk.>X .U.B N.H.b 8 M.C.).d.G ' s.] G ' _ 2.8.+.(.2.8.[._._.G.9 T '.W d ",
"^.Z z S n U._ : 3 o t     t   . $.G > G #., *.G  .` U [ _.` U [ l @ 2 3 p 0 q Z 0.I H I 0.I H _  .8.h.+. .8.h.} R /.z a R /.z ",
"U.G.T { _ G.x f O   1     1 O B m G *.< < m *.G ` o. .U ` o.s.] i 2 2 5 i 2 @ b 6.P P P 6.P P L [.@.8.h.[.@.8.J a R /.z a Q /.",
"U.G.F ^.V _ d * X   + l O 1 o u b G $., &.< #.H I  .[  .o. .[ G.i K.N.2 0 2 2 f H I 0.I H I 9.6.h.+.| 8.h.+.] } z % Q /.z a R ",
"_ { n U.B S Y S X u O t O     O : %.< , *.G , &._.` I [ _.` U n 3 6 7 2 5 K.M.f P P 6.P P P 6.L 8.h.[.+.8.h.[.'./.z a Q /.z a ",
"n V b U.B S ^.T X t + 1   . u X > #.G *.< > < $.' o. .I ` o.s.L + 1 1 2 3 6 u a.0.I H I 0.I H _ | 8.h.+. .8.h.` R /.z a Q /.z ",
"b V b _ x n U._ X o @ + l O t X G *.J *.J *., #.5._.[  .d. .[ Z 3 2 5 N.0 1 3 Z 6.P P P 6.P P L @.+.8.h.[.+.8.J a R /.z a Q /.",
"G x f S d b U._ B O 1 o t O 1 . G < G , *.$.: < _.` I [ _.` U n i N.3 t o @ q f H I 0.I H I 0.9.h.[.| 8.h.+.' } z % Q /.z a Q "
};
