/* XPM */
static char *result[] = {
/* columns rows colors chars-per-pixel */
"64 64 10 1 ",
"  c #5D2C28",
". c #37474F",
"X c #9C3232",
"o c #AD3C3C",
"O c #8A4836",
"+ c #BF6F4A",
"@ c #C04B4B",
"# c #E69C69",
"$ c #C79FA0",
"% c #D9B4B6",
/* pixels */
"@@@@@@@@@@@@@@@@@@oo$$@@@@@@@@@@@@@@@@@@oo$$@@@@@@@@@@@@@@@@@@oo",
"@@@@@@@@@@@@@@@@@@oo$$@@@@@@@@@@@@@@@@@@oo$$@@@@@@@@@@@@@@@@@@oo",
"@@ooooooooooooooooXX%%@@ooooooooooooooooXX%%@@ooooooooooooooooXX",
"@@ooooooooooooooooXX%%@@ooooooooooooooooXX%%@@ooooooooooooooooXX",
"@@ooooooooooooooooXX%%@@ooooooooooooooooXX%%@@ooooooooooooooooXX",
"@@ooooooooooooooooXX%%@@ooooooooooooooooXX%%@@ooooooooooooooooXX",
"@@ooooooooooooooooXX%%@@ooooooooooooooooXX%%@@ooooooooooooooooXX",
"ooXXXXXXXXXXXXXXXXXX$$ooXXXXXXXXXXXXXXXXXX$$ooXXXXXXXXXXXXXXXXXX",
"ooXXXXXXXXXXXXXXXXXX$$ooXXXXXXXXXXXXXXXXXX$$ooXXXXXXXXXXXXXXXXXX",
"$$%%%%%$$$$$$%%%%%$$$$$$%%%%%$$$$$$%%%%%$$$$$$%%%%%$$$$$$%%%%%$$",
"$$%%%%%$$$$$$%%%%..............................%%%%$$$$$$%%%%%$$",
"@@@@@@@oo$$@@@@@@..............................@@@@oo$$@@@@@@@@@",
"@@@@@@@oo$$@@@@@@..OOOOOOOOOOOOOOOOOOOOOOOOOO..@@@@oo$$@@@@@@@@@",
"oooooooXX%%@@oooo..OOOOOOOOOOOOOOOOOOOOOOOOOO..ooooXX%%@@ooooooo",
"oooooooXX%%@@oooo..OOOOOOOOOOOOOOOOOOOOOOOOOO..ooooXX%%@@ooooooo",
"oooooooXX%%@@oooo..OOOOOOOOOOOOOOOOOOOOOOOOOO..ooooXX%%@@ooooooo",
"oooooooXX%%@@oooo..OOOOOOOOOOOOOOOOOOOOOOOOOO..ooooXX%%@@ooooooo",
"oooooooXX%%@@oooo..OOOOOOOOOOOOOOOOOOOOOOOOOO..ooooXX%%@@ooooooo",
"oooooooXX%%@@oooo..OOOOO                ##OOO..ooooXX%%@@ooooooo",
"XXXXXXXXX$$ooXXXX..OOOOO                ##OOO..XXXXXX$$ooXXXXXXX",
"$$%%%%%$$$$$$%%%%..OOOOO  +++  ++++ ++++##OOO..%%%%$$$$$$%%%%%$$",
"$$%%%%%$$$$$$%%%%..OOOOO  +++  ++++ ++++##O##..%%%%$$$$$$%%%%%$$",
"@@@@@@@@@@@@@@@@@..OOOOO  +++  ++++ ++++##O##..@@@@@@@@@@@@@@@oo",
"@@@@@@@@@@@@@@@@@..OOOOO  +++  ++++ ++++##O  ..@@@@@@@@@@@@@@@oo",
"@@ooooooooooooooo..OOOOO  +++  ++++ ++++##O  ..oooooooooooooooXX",
"@@ooooooooooooooo..OOOOO  +++  ++++ ++++##O  ..oooooooooooooooXX",
"@@ooooooooooooooo..OOOOO  +++  ++++ ++++##O  ..oooooooooooooooXX",
"@@ooooooooooooooo..OOOOO  +++  ++++ ++++##O  ..oooooooooooooooXX",
"@@ooooooooooooooo..OOOOO  +++  ++++ ++++##O  ..oooooooooooooooXX",
"@@ooooooooooooooo..OOOOO  +++  ++++ ++++##OOO..oooooooooooooooXX",
"ooXXXXXXXXXXXXXXX..OOOOO  +++  ++++ ++++##OOO..XXXXXXXXXXXXXXXXX",
"ooXXXXXXXXXXXXXXX..OOOOO  +++  ++++ ++++##OOO..XXXXXXXXXXXXXXXXX",
"$$%%%%%$$$$$$%%%%..OOOOO  ################OOO..%%%%$$$$$$%%%%%$$",
"@@@@@@@oo$$@@@@@@..OOOOO  ################OOO..@@@@oo$$@@@@@@@@@",
"@@@@@@@oo$$@@@@@@..OOOOOOOOOOOOOOOOOOOOOOOOOO..@@@@oo$$@@@@@@@@@",
"oooooooXX%%@@oooo..OOOOOOOOOOOOOOOOOOOOOOOOOO..ooooXX%%@@ooooooo",
"oooooooXX%%@@oooo..OOOOOOOOOOOOOOOOOOOOOOOOOO..ooooXX%%@@ooooooo",
"oooooooXX%%@@oooo..OOOOOOOOOOOOOOOOOOOOOOOOOO..ooooXX%%@@ooooooo",
"oooooooXX%%@@oooo..OOOOOOOOOOOOOOOOOOOOOOOOOO..ooooXX%%@@ooooooo",
"oooooooXX%%@@oooo..OOOOOOOOOOOOOOOOOOOOOOOOOO..ooooXX%%@@ooooooo",
"oooooooXX%%@@oooo..OOOOOOOOOOOOOOOOOOOOOOOOOO..ooooXX%%@@ooooooo",
"XXXXXXXXX$$ooXXXX..OOOOOOOOOOOOOOOOOOOOOOOOOO..XXXXXX$$ooXXXXXXX",
"XXXXXXXXX$$ooXXXX..OOOOO                ##OOO..XXXXXX$$ooXXXXXXX",
"$$%%%%%$$$$$$%%%%..OOOOO  +++  ++++ ++++##OOO..%%%%$$$$$$%%%%%$$",
"$$%%%%%$$$$$$%%%%..OOOOO  +++  ++++ ++++##OOO..%%%%$$$$$$%%%%%$$",
"@@@@@@@@@@@@@@@@@..OOOOO  +++  ++++ ++++##O##..@@@@@@@@@@@@@@@oo",
"@@ooooooooooooooo..OOOOO  +++  ++++ ++++##O##..oooooooooooooooXX",
"@@ooooooooooooooo..OOOOO  +++  ++++ ++++##O  ..oooooooooooooooXX",
"@@ooooooooooooooo..OOOOO  +++  ++++ ++++##O  ..oooooooooooooooXX",
"@@ooooooooooooooo..OOOOO  +++  ++++ ++++##O  ..oooooooooooooooXX",
"@@ooooooooooooooo..OOOOO  +++  ++++ ++++##O  ..oooooooooooooooXX",
"@@ooooooooooooooo..OOOOO  +++  ++++ ++++##O  ..oooooooooooooooXX",
"ooXXXXXXXXXXXXXXX..OOOOO  +++  ++++ ++++##O  ..XXXXXXXXXXXXXXXXX",
"ooXXXXXXXXXXXXXXX..OOOOO  +++  ++++ ++++##OOO..XXXXXXXXXXXXXXXXX",
"$$%%%%%$$$$$$%%%%..OOOOO  +++  ++++ ++++##OOO..%%%%$$$$$$%%%%%$$",
"$$%%%%%$$$$$$%%%%..OOOOO  +++  ++++ ++++##OOO..%%%%$$$$$$%%%%%$$",
"@@@@@@@oo$$@@@@@@..OOOOO  ################OOO..@@@@oo$$@@@@@@@@@",
"@@@@@@@oo$$@@@@@@..OOOOO  ################OOO..@@@@oo$$@@@@@@@@@",
"oooooooXX%%@@oooo..OOOOOOOOOOOOOOOOOOOOOOOOOO..ooooXX%%@@ooooooo",
"oooooooXX%%@@oooo..OOOOOOOOOOOOOOOOOOOOOOOOOO..ooooXX%%@@ooooooo",
"oooooooXX%%@@oooo..OOOOOOOOOOOOOOOOOOOOOOOOOO..ooooXX%%@@ooooooo",
"oooooooXX%%@@oooo..OOOOOOOOOOOOOOOOOOOOOOOOOO..ooooXX%%@@ooooooo",
"oooooooXX%%@@oooo..............................ooooXX%%@@ooooooo",
"XXXXXXXXX$$ooXXXX..............................XXXXXX$$ooXXXXXXX"
};
