/* XPM */
static char *result[] = {
/* columns rows colors chars-per-pixel */
"64 64 10 1 ",
"  c black",
". c #37474F",
"X c #9C3232",
"o c #AD3C3C",
"O c #C04B4B",
"+ c #008000",
"@ c #4CAF50",
"# c #CDDC39",
"$ c #C79FA0",
"% c #D9B4B6",
/* pixels */
"OOOOOOOOOOOOOOOOOOOoo$$OOOOOOOOOOOOOOOOOOoo$$OOOOOOOOOOOOOOOOOOO",
"OOOOOOOOOOOOOOOOOOOoo$$OOOOOOOOOOOOOOOOOOoo$$OOOOOOOOOOOOOOOOOOO",
"OOoooooooooooooooooXX%%OOooooooooooooooooXX%%OOooooooooooooooooo",
"OOoooooooooooooooooXX%%OOooooooooooooooooXX%%OOooooooooooooooooo",
"OOoooooooooooooooooXX%%OOooooooooooooooooXX%%OOooooooooooooooooo",
"OOoooooooooooooooooXX%%OOooooooooooooooooXX%%OOooooooooooooooooo",
"OOoooooooooooooooooXX%%OOooooooooooooooooXX%%OOooooooooooooooooo",
"OOoooooooooooooooooXX%%OOooooooooooooooooXX%%OOooooooooooooooooo",
"ooXXXXXXXXXXXXXXXXXXX$$ooXXXXXXXXXXXXXXXXXX$$ooXXXXXXXXXXXXXXXXX",
"$$%%%%%%$$$$$%%%%%%$$$$$$%%%##@@@@@@@%%%%$$$$$$%%%%%%$$$$$%%%%%%",
"$$%%%%%%$$$$$%%%%%%$$$$$$%%%##@@@@@@@%%%%$$$$$$%%%%%%$$$$$%%%%%%",
"OOOOOOOOo$$OOOOOOOOOOOOOOOOO##@@@@@@@@@@@@@OOOOOOOOOOoo$$OOOOOOO",
"OOOOOOOOo$$OO...............##@@@@@@@@@@@@@@@@@@..OOOoo$$OOOOOOO",
"ooooooooX%%OO...............##@@@@@@@@@@@@@@@@@@..oooXX%%Ooooooo",
"ooooooooX%%OO...............##@@@@@@@@@@@@@@@@@@..oooXX%%Ooooooo",
"ooooooooX%%OO....           ##@@@@@++++@@@@@@@@@..oooXX%%Ooooooo",
"ooooooooX%%OO....           ##@@@@@++++@@@@@@@@@..oooXX%%Ooooooo",
"ooooooooX%%OO....           ##@@@@@++@@++++@@@@@..oooXX%%Ooooooo",
"ooooooooX%%OO....           ##@@@@@++@@++@@###@@..oooXX%%Ooooooo",
"XXXXXXXXX$$oo....           ##@@@@@++@@++@@###@@..XXXXX$$oXXXXXX",
"XXXXXXXXX$$oo....           ##@@@@@++@@++@@###@@..XXXXX$$oXXXXXX",
"$$%%%%%%$$$$$....           ##@@@@@++@@++@@#####..%%%$$$$$%%%%%%",
"$$%%%%%%$$$$$....           ##@@@@@++@@++@@#####..%%%$$$$$%%%%%%",
"OOOOOOOOOOOOO....           ##@@@@@++@@++@@###++..OOOOOOOOOOOOOO",
"OOOOOOOOOOOOO....           ##@@@@@++@@++@@###++..OOOOOOOOOOOOOO",
"OOooooooooooo....           ##@@@@@++@@++@@###++..oooooooooooooo",
"OOooooooooooo....           ##@@@@@++@@++@@###++..oooooooooooooo",
"OOooooooooooo....           ##@@@@@++@@++@@###@@..oooooooooooooo",
"OOooooooooooo....           ##@@@@@++@@++@@###@@..oooooooooooooo",
"OOooooooooooo....           ##@@@@@++@@++@@###@@..oooooooooooooo",
"ooXXXXXXXXXXX....           ##@@@@@++@@++@@###@@..XXXXXXXXXXXXXX",
"ooXXXXXXXXXXX....           ##@@@@@++@@++@@###@@..XXXXXXXXXXXXXX",
"$$%%%%%%$$$$$....           ##@@@@@@@####@@###@@..%%%$$$$$%%%%%%",
"$$%%%%%%$$$$$....           ##@@@@@@@@@@@#####@@..%%%$$$$$%%%%%%",
"OOOOOOOOo$$OO....           ##@@@@@@@@@@@#####@@..OOOoo$$OOOOOOO",
"OOOOOOOOo$$OO....           ##@@@@@@@@@@@@@@@@@@..OOOoo$$OOOOOOO",
"ooooooooX%%OO....           ##@@@@@@@@@@@@@@@@@@..oooXX%%Ooooooo",
"ooooooooX%%OO....           ##@@@@@@@@@@@@@@@@@@..oooXX%%Ooooooo",
"ooooooooX%%OO....           ##@@@@@@@@@@@@@@@@@@..oooXX%%Ooooooo",
"ooooooooX%%OO....           ##@@@@@@@@@@@@@@@@@@..oooXX%%Ooooooo",
"ooooooooX%%OO....           ##@@@@@@@@@@@++###@@..oooXX%%Ooooooo",
"XXXXXXXXX$$oo....           ##@@@@@@@@@@@++###@@..XXXXX$$oXXXXXX",
"XXXXXXXXX$$oo....           ##@@@@@@@++++@@###@@..XXXXX$$oXXXXXX",
"$$%%%%%%$$$$$....           ##@@@@@@@++++@@###@@..%%%$$$$$%%%%%%",
"$$%%%%%%$$$$$....           ##@@@@@++@@++@@###@@..%%%$$$$$%%%%%%",
"OOOOOOOOOOOOO....           ##@@@@@++@@++@@###@@..OOOOOOOOOOOOOO",
"OOOOOOOOOOOOO....           ##@@@@@++@@++@@###@@..OOOOOOOOOOOOOO",
"OOooooooooooo....           ##@@@@@++@@++@@###@@..oooooooooooooo",
"OOooooooooooo....           ##@@@@@++@@++@@#####..oooooooooooooo",
"OOooooooooooo....           ##@@@@@++@@++@@#####..oooooooooooooo",
"OOooooooooooo....           ##@@@@@++@@++@@###++..oooooooooooooo",
"OOooooooooooo....           ##@@@@@++@@++@@###++..oooooooooooooo",
"OOooooooooooo....           ##@@@@@++@@++@@###++..oooooooooooooo",
"ooXXXXXXXXXXX....           ##@@@@@++@@++@@###++..XXXXXXXXXXXXXX",
"ooXXXXXXXXXXX....           ##@@@@@++@@++@@###@@..XXXXXXXXXXXXXX",
"$$%%%%%%$$$$$....           ##@@@@@++@@++@@###@@..%%%$$$$$%%%%%%",
"$$%%%%%%$$$$$....           ##@@@@@++@@++@@###@@..%%%$$$$$%%%%%%",
"OOOOOOOOo$$OO....           ##@@@@@++@@####@@@@@..OOOoo$$OOOOOOO",
"ooooooooX%%OO....           ##@@@@@++##@@@@@@@@@..oooXX%%Ooooooo",
"ooooooooX%%OO....           ##@@@@@++##@@@@@@@@@..oooXX%%Ooooooo",
"ooooooooX%%OO...............##@@@@@@@@@@@@@@@@@@..oooXX%%Ooooooo",
"ooooooooX%%OO...............##@@@@@@@@@@@@@@@@@@..oooXX%%Ooooooo",
"ooooooooX%%OO...............##@@@@@@@@@@@@@@@@@@..oooXX%%Ooooooo",
"ooooooooX%%OOooooooooooooooo##@@@@@@@@@@@@@ooooooooooXX%%Ooooooo"
};
